<?xml version="1.0" standalone="no"?>
<!DOCTYPE svg PUBLIC "-//W3C//DTD SVG 20010904//EN"
 "http://www.w3.org/TR/2001/REC-SVG-20010904/DTD/svg10.dtd">
<svg version="1.0" xmlns="http://www.w3.org/2000/svg"
 width="260.000000pt" height="260.000000pt" viewBox="0 0 260.000000 260.000000"
 preserveAspectRatio="xMidYMid meet">
<metadata>
Created by potrace 1.11, written by Peter Selinger 2001-2013
</metadata>
<g transform="translate(0.000000,260.000000) scale(0.100000,-0.100000)"
fill="#000000" stroke="none">
<path d="M0 1300 l0 -1300 1300 0 1300 0 0 1300 0 1300 -1300 0 -1300 0 0
-1300z m1331 695 c24 -99 47 -137 141 -227 49 -48 110 -99 134 -113 60 -35
167 -61 310 -75 65 -7 120 -13 122 -14 1 -2 -47 -8 -107 -15 -210 -22 -330
-65 -423 -150 -120 -109 -152 -253 -194 -848 -10 -139 -20 -251 -21 -249 -2 2
-13 133 -23 292 -41 586 -63 679 -197 804 -106 99 -209 136 -441 156 -45 3
-81 8 -80 10 2 1 59 8 128 14 145 13 234 31 291 60 48 25 210 187 244 245 30
51 51 139 64 279 6 60 12 114 12 120 1 6 7 -45 15 -114 7 -69 19 -147 25 -175z"/>
</g>
</svg>
